<svg width="35" height="34" viewBox="0 0 35 34" fill="none" xmlns="http://www.w3.org/2000/svg">
<path d="M17.4354 27.7419C17.4354 27.7419 23.8666 30.6003 26.0104 22.0253C28.1541 13.4503 17.4354 27.7419 17.4354 27.7419Z" fill="#B1CC33" stroke="#B1CC33" stroke-width="1.28625" stroke-miterlimit="10" stroke-linecap="round" stroke-linejoin="round"/>
<path d="M18.15 22.7399C18.15 22.7399 22.5268 20.825 22.9029 23.3382C23.0105 24.0568 22.7289 24.7799 22.2489 25.3253L18.8646 29.171L18.8646 29.1711C18.8659 29.1715 23.4595 30.5359 22.5566 31.6126C21.0084 33.4584 14.5781 32.0296 14.5771 32.0294V32.0293L15.2916 28.4566L15.2916 28.4565C3.86047 31.3143 1.00107 20.6001 1 20.5961C1.00357 20.599 11.124 28.9316 15.3512 21.9062C19.5791 14.8794 17.5545 0.706924 26.4272 1.00462C32.3997 1.20506 33.4615 4.37337 33.5176 6.4233C33.5448 7.41871 33.3348 8.15044 33.3348 8.15044C33.2793 8.5644 33.2025 8.92648 33.107 9.24375C32.2825 11.9845 30.0631 11.3869 28.0351 12.0806C25.7725 12.8547 26.5462 15.2361 26.5464 15.2367H26.5465C30.6552 14.1649 30.2979 19.1669 28.8687 17.7378C27.4395 16.3086 26.6059 18.6905 26.6059 18.6905L26.6058 18.6906C26.6058 18.6907 26.725 23.4544 25.2958 24.8836" fill="#B1CC33"/>
<path d="M18.15 22.7399C18.15 22.7399 22.5268 20.825 22.9029 23.3382C23.0105 24.0568 22.7289 24.7799 22.2489 25.3253L18.8646 29.171L18.8646 29.1711C18.8659 29.1715 23.4595 30.5359 22.5566 31.6126C21.0084 33.4584 14.5781 32.0296 14.5771 32.0294V32.0293L15.2916 28.4566L15.2916 28.4565C3.86047 31.3143 1.00107 20.6001 1 20.5961C1.00357 20.599 11.124 28.9316 15.3512 21.9062C19.5791 14.8794 17.5545 0.706924 26.4272 1.00462C32.3997 1.20506 33.4615 4.37337 33.5176 6.4233C33.5448 7.41871 33.3348 8.15044 33.3348 8.15044C33.2793 8.5644 33.2025 8.92648 33.107 9.24375C32.2825 11.9845 30.0631 11.3869 28.0351 12.0806C25.7725 12.8547 26.5462 15.2361 26.5464 15.2367H26.5465C30.6552 14.1649 30.2979 19.1669 28.8687 17.7378C27.4395 16.3086 26.6059 18.6905 26.6059 18.6905L26.6058 18.6906C26.6058 18.6907 26.725 23.4544 25.2958 24.8836" stroke="#B1CC33" stroke-width="1.28625" stroke-miterlimit="10" stroke-linecap="round" stroke-linejoin="round"/>
<path d="M26.725 19.1669C28.1541 19.1669 29.5833 21.3107 29.5833 21.3107C30.2979 24.169 26.4272 27.2655 26.4272 27.2655C26.4272 27.2655 34.5854 29.1711 27.916 29.4093C21.2465 29.6475 23.152 27.7419 23.152 27.7419C23.152 27.7419 25.2958 26.3128 26.725 21.3107" fill="#5C9E31"/>
<path d="M26.725 19.1669C28.1541 19.1669 29.5833 21.3107 29.5833 21.3107C30.2979 24.169 26.4272 27.2655 26.4272 27.2655C26.4272 27.2655 34.5854 29.1711 27.916 29.4093C21.2465 29.6475 23.152 27.7419 23.152 27.7419C23.152 27.7419 25.2958 26.3128 26.725 21.3107" stroke="#5C9E31" stroke-width="1.28625" stroke-miterlimit="10"/>
<path d="M21.0083 17.7378C21.0083 17.7378 22.4375 14.9986 24.2239 16.7254C26.0104 18.4524 23.8666 19.1669 23.152 18.4524C22.4375 17.7378 21.7229 19.8815 21.7229 19.8815" stroke="black" stroke-width="1.42916" stroke-miterlimit="10" stroke-linecap="round" stroke-linejoin="round"/>
<path d="M18.15 22.7399C18.15 22.7399 22.5268 20.825 22.9029 23.3382C23.0105 24.0568 22.7289 24.7798 22.2489 25.3253L18.8646 29.1711C18.8646 29.1711 23.4597 30.5358 22.5566 31.6126C21.0083 33.4586 14.5771 32.0294 14.5771 32.0294L15.2916 28.4565C3.85833 31.3148 1 20.5961 1 20.5961C1 20.5961 11.1233 28.9329 15.3512 21.9061C19.5791 14.8794 17.5544 0.706853 26.4272 1.00462C32.3997 1.20506 33.4615 4.37337 33.5176 6.4233C33.5448 7.41871 33.3348 8.15044 33.3348 8.15044C33.2793 8.5644 33.2025 8.92648 33.107 9.24375C32.2825 11.9845 30.0631 11.3869 28.0351 12.0806C25.7722 12.8548 26.5463 15.2367 26.5463 15.2367C30.6552 14.1649 30.2979 19.1669 28.8687 17.7378C27.4395 16.3086 26.6058 18.6905 26.6058 18.6905C26.6058 18.6905 26.725 23.4544 25.2958 24.8836" stroke="black" stroke-width="1.42916" stroke-miterlimit="10" stroke-linecap="round" stroke-linejoin="round"/>
<path d="M29.226 20.477C31.727 22.5016 26.4272 27.2655 26.4272 27.2655C26.4272 27.2655 34.5854 29.1711 27.916 29.4093C21.2465 29.6475 23.152 27.7419 23.152 27.7419" stroke="black" stroke-width="1.42916" stroke-miterlimit="10" stroke-linecap="round" stroke-linejoin="round"/>
</svg>
