<svg width="50" height="34" viewBox="0 0 50 34" fill="none" xmlns="http://www.w3.org/2000/svg">
<path fill-rule="evenodd" clip-rule="evenodd" d="M24.7739 3.71659C22.164 0.688007 18.5074 -0.467503 15.3915 0.169193C12.2233 0.816555 9.84043 3.27824 9.84043 6.96885C9.84043 12.6526 13.5753 16.5785 17.9648 19.4204C15.8421 21.1699 14.2302 23.2061 13.2681 25.1818C13.1666 25.3904 13.0717 25.5994 12.9839 25.8085H1.06383C0.476293 25.8085 0 26.241 0 26.7746C0 27.3082 0.476293 27.7407 1.06383 27.7407H12.3831C12.236 28.4926 12.201 29.2252 12.2981 29.9149C12.5089 31.4136 13.3527 32.7102 14.9498 33.4354C16.6509 34.2079 18.2882 34.1386 19.7427 33.5248C21.1445 32.9333 22.3272 31.8604 23.2919 30.6896C24.0482 29.7717 24.7089 28.7462 25.2658 27.7407H48.9362C49.5237 27.7407 50 27.3082 50 26.7746C50 26.241 49.5237 25.8085 48.9362 25.8085H26.2326C26.6041 24.9846 26.8886 24.2439 27.0806 23.6773C27.5603 22.2614 28.1192 19.5524 28.2392 16.4663C28.4692 16.4006 28.6919 16.3411 28.9074 16.2876C30.365 15.9255 31.4188 15.856 32.1095 15.9564C32.7744 16.0531 32.963 16.2746 33.0335 16.4316C33.134 16.6556 33.1668 17.129 32.7933 17.9527C32.3134 19.011 32.0701 19.9806 32.3013 20.7548C32.4302 21.1867 32.7113 21.5657 33.1556 21.8072C33.5758 22.0357 34.0386 22.0852 34.4417 22.0623C35.2246 22.0178 36.0808 21.6849 36.869 21.2537C37.6831 20.8084 38.5316 20.1992 39.3164 19.4864C40.0223 18.8454 40.7467 18.2606 41.4285 17.8024C42.1244 17.3347 42.7142 17.041 43.1554 16.9219C43.3704 16.8638 43.5014 16.8608 43.5665 16.8682C43.6108 16.8732 43.6191 16.8809 43.6243 16.8857C43.6691 16.9245 43.8824 17.1852 43.8824 18.0787C43.8824 19.7345 44.3696 21.0357 45.6817 21.5125C46.2763 21.7285 46.8895 21.7047 47.4076 21.6067C47.9297 21.5079 48.4364 21.3189 48.88 21.1174C49.4055 20.8788 49.6185 20.2985 49.3558 19.8212C49.093 19.344 48.454 19.1505 47.9285 19.3892C47.5743 19.55 47.2497 19.6628 46.9738 19.715C46.694 19.7679 46.5424 19.7441 46.472 19.7185C46.448 19.7099 46.0101 19.5527 46.0101 18.0787C46.0101 17.0403 45.79 16.0923 45.0952 15.4897C44.3292 14.8252 43.3361 14.8573 42.5492 15.0697C41.7606 15.2826 40.9377 15.7284 40.1627 16.2493C39.3736 16.7797 38.5689 17.4327 37.812 18.1201C37.134 18.7357 36.42 19.2437 35.7712 19.5985C35.3695 19.8183 35.0272 19.9605 34.7567 20.0429C34.5357 20.1103 34.3425 19.9346 34.3945 19.7094C34.4511 19.4642 34.5604 19.1301 34.7606 18.6885C35.2252 17.664 35.411 16.6096 35.0038 15.7022C34.5664 14.7278 33.5864 14.2143 32.4458 14.0485C31.3312 13.8865 29.943 14.0271 28.346 14.4238C28.3145 14.4316 28.2828 14.4396 28.251 14.4477C28.1467 10.7671 27.3143 6.66445 24.7739 3.71659ZM23.9193 25.8085C24.4297 24.7666 24.812 23.8029 25.047 23.1091C25.4289 21.982 25.9027 19.7815 26.0715 17.192C25.3088 17.4805 24.4894 17.8216 23.6141 18.219C22.9161 18.536 22.2495 18.8902 21.6173 19.2739C21.8554 19.403 22.0953 19.53 22.3364 19.6552C22.8465 19.92 23.0237 20.5102 22.7321 20.9734C22.4405 21.4366 21.7907 21.5975 21.2806 21.3327C20.786 21.076 20.2902 20.8083 19.7972 20.5288C17.7501 22.1236 16.2012 24.0093 15.2909 25.8085H23.9193ZM14.5532 27.7407C14.3753 28.4564 14.3296 29.1087 14.4086 29.67C14.5437 30.6305 15.0326 31.3127 15.9013 31.7072C16.9927 32.2028 17.9485 32.1513 18.8461 31.7725C19.7963 31.3716 20.7247 30.5802 21.5884 29.5319C22.0488 28.9732 22.4731 28.3634 22.8576 27.7407H14.5532ZM22.6625 16.4908C23.9102 15.9243 25.0686 15.4584 26.1343 15.0886C26.1336 14.9841 26.1324 14.8793 26.1305 14.7742C26.0653 11.1621 25.2772 7.43582 23.0984 4.90745C20.9211 2.38085 18.0617 1.60412 15.8585 2.05431C13.7075 2.49383 11.9681 4.13816 11.9681 6.96885C11.9681 11.9458 15.3424 15.4558 19.6765 18.1502C20.6022 17.5331 21.6003 16.9731 22.6625 16.4908Z" fill="white"/>
<path d="M7.93309 15.2226C8.34854 15.5999 8.34854 16.2116 7.93309 16.5889L5.7598 18.5626L7.93309 20.5363C8.34854 20.9136 8.34854 21.5253 7.93309 21.9026C7.51764 22.2799 6.84406 22.2799 6.42861 21.9026L4.25532 19.9289L2.08203 21.9026C1.66658 22.2799 0.992998 22.2799 0.577546 21.9026C0.162095 21.5253 0.162095 20.9136 0.577546 20.5363L2.75084 18.5626L0.577547 16.5889C0.162095 16.2116 0.162095 15.5999 0.577547 15.2226C0.992998 14.8453 1.66658 14.8453 2.08203 15.2226L4.25532 17.1963L6.42861 15.2226C6.84406 14.8453 7.51764 14.8453 7.93309 15.2226Z" fill="white"/>
</svg>
