<svg width="73" height="47" viewBox="0 0 73 47" fill="none" xmlns="http://www.w3.org/2000/svg">
<g style="mix-blend-mode:darken">
<path d="M50.9004 20.1406C50.9004 20.2057 50.8678 20.3359 50.8027 20.5312C50.3796 21.2148 49.8424 22.0286 49.1914 22.9727C48.5404 23.8841 47.8242 24.763 47.043 25.6094C46.2617 26.4232 45.4479 27.1068 44.6016 27.6602C43.7878 28.2461 42.9902 28.5391 42.209 28.5391C41.5579 28.5391 40.9395 28.3763 40.3535 28.0508C39.7676 27.7578 39.2793 27.3184 38.8887 26.7324C38.4329 26.0814 38.026 25.3327 37.668 24.4863C37.3424 23.64 37.0495 22.7611 36.7891 21.8496C36.5612 20.9382 36.3496 20.0267 36.1543 19.1152C35.9915 18.2038 35.8451 17.3249 35.7148 16.4785C34.0547 18.7897 32.5247 21.1823 31.125 23.6562C29.7253 26.0977 28.2767 28.5065 26.7793 30.8828C25.2819 33.3242 23.6868 35.6517 21.9941 37.8652C20.3014 40.0788 18.332 42.0645 16.0859 43.8223C15.207 44.5059 14.2467 45.0755 13.2051 45.5312C12.1634 45.987 11.1055 46.2148 10.0312 46.2148C8.85938 46.2148 7.80143 45.9219 6.85742 45.3359C5.91341 44.7826 5.06706 44.0339 4.31836 43.0898C3.53711 42.1784 2.86979 41.1367 2.31641 39.9648C1.73047 38.8255 1.22591 37.6862 0.802734 36.5469C0.770182 36.4818 0.753906 36.3841 0.753906 36.2539C0.753906 36.026 0.835286 35.8307 0.998047 35.668C1.12826 35.5378 1.27474 35.4727 1.4375 35.4727C1.73047 35.4727 1.92578 35.6029 2.02344 35.8633C2.1862 36.1888 2.33268 36.5143 2.46289 36.8398C2.5931 37.1654 2.73958 37.4909 2.90234 37.8164C3.45573 38.9557 4.10677 40.0299 4.85547 41.0391C5.60417 42.0807 6.4668 42.8783 7.44336 43.4316C8.19206 43.8548 8.98958 44.0664 9.83594 44.0664C10.7799 44.0664 11.6914 43.8548 12.5703 43.4316C13.4492 43.0085 14.263 42.4876 15.0117 41.8691C16.7044 40.4368 18.2669 38.8418 19.6992 37.084C21.099 35.3587 22.4173 33.5195 23.6543 31.5664C24.9238 29.6133 26.1445 27.6276 27.3164 25.6094C28.4557 23.5586 29.6113 21.5241 30.7832 19.5059C31.4668 18.3665 32.1667 17.2435 32.8828 16.1367C33.6315 15.0299 34.3965 13.9557 35.1777 12.9141C35.015 11.3516 34.8522 9.78906 34.6895 8.22656C34.5267 6.63151 34.4453 5.05273 34.4453 3.49023C34.4453 3.29492 34.543 3.11589 34.7383 2.95312C34.9336 2.79036 35.0964 2.70898 35.2266 2.70898C35.5195 2.70898 35.7148 2.85547 35.8125 3.14844C36.1706 4.15755 36.4635 5.3457 36.6914 6.71289C36.9193 8.04753 37.1146 9.26823 37.2773 10.375C38.9701 8.48698 40.793 6.87565 42.7461 5.54102C44.7318 4.17383 46.8639 3.22982 49.1426 2.70898L49.2402 2.66016C49.4355 2.66016 49.5983 2.75781 49.7285 2.95312C49.8913 3.11589 49.9727 3.3112 49.9727 3.53906C49.9727 3.86458 49.8262 4.10872 49.5332 4.27148C49.3053 4.40169 49.0775 4.51562 48.8496 4.61328C48.6217 4.71094 48.4102 4.80859 48.2148 4.90625C46.1315 5.94792 44.2272 7.25 42.502 8.8125C40.7767 10.3424 39.1816 12.0189 37.7168 13.8418C37.7493 14.1999 37.7982 14.6556 37.8633 15.209C37.9609 15.7624 38.0586 16.3646 38.1562 17.0156C38.2539 17.6667 38.3678 18.3503 38.498 19.0664C38.6283 19.75 38.7747 20.4336 38.9375 21.1172C39.2956 22.5169 39.735 23.7214 40.2559 24.7305C40.8092 25.707 41.4766 26.1953 42.2578 26.1953C42.4206 26.1953 42.5833 26.1628 42.7461 26.0977C42.9414 26.0326 43.1204 25.9674 43.2832 25.9023C43.9342 25.5768 44.5365 25.1699 45.0898 24.6816C45.6758 24.1934 46.2292 23.6562 46.75 23.0703C47.3034 22.5169 47.8079 21.931 48.2637 21.3125C48.752 20.6615 49.2565 20.043 49.7773 19.457C49.9076 19.3268 50.0378 19.2617 50.168 19.2617C50.3307 19.2617 50.4935 19.3594 50.6562 19.5547C50.819 19.7174 50.9004 19.9128 50.9004 20.1406ZM72.4824 21.166C72.4824 21.2962 72.4173 21.4264 72.2871 21.5566C71.6361 22.3053 71.0176 23.0378 70.4316 23.7539C69.8457 24.4701 69.2109 25.1374 68.5273 25.7559C67.8763 26.3743 67.1439 26.9115 66.3301 27.3672C65.5488 27.8229 64.6536 28.1647 63.6445 28.3926C62.1471 27.709 61.3984 26.5534 61.3984 24.9258C61.3984 24.5677 61.431 24.2096 61.4961 23.8516C61.5612 23.4609 61.5775 23.0703 61.5449 22.6797C61.0892 23.168 60.5195 23.7214 59.8359 24.3398C59.1849 24.9258 58.4688 25.4954 57.6875 26.0488C56.9388 26.6022 56.1738 27.0579 55.3926 27.416C54.6113 27.8066 53.8789 28.002 53.1953 28.002C52.2839 28.002 51.5352 27.8066 50.9492 27.416C50.3633 27.0579 49.8913 26.5859 49.5332 26C49.2077 25.3815 48.9798 24.6979 48.8496 23.9492C48.7194 23.168 48.6543 22.403 48.6543 21.6543C48.6543 20.873 48.7031 20.1081 48.8008 19.3594C48.9635 17.7969 49.2402 16.2995 49.6309 14.8672C50.0215 13.4023 50.4935 11.9538 51.0469 10.5215C51.4701 9.51237 51.9095 8.51953 52.3652 7.54297C52.821 6.53385 53.2767 5.54102 53.7324 4.56445C53.8952 4.23893 54.0579 3.88086 54.2207 3.49023C54.3835 3.06706 54.5625 2.72526 54.7578 2.46484C54.9206 2.23698 55.1159 2.12305 55.3438 2.12305C55.5065 2.12305 55.6855 2.20443 55.8809 2.36719C56.0762 2.52995 56.1738 2.69271 56.1738 2.85547C56.1738 3.08333 56.125 3.40885 56.0273 3.83203C55.9622 4.22266 55.8646 4.64583 55.7344 5.10156C55.6367 5.52474 55.5228 5.94792 55.3926 6.37109C55.2949 6.76172 55.1973 7.07096 55.0996 7.29883C54.7415 8.4707 54.3184 9.64258 53.8301 10.8145C53.3743 11.9538 52.9349 13.1257 52.5117 14.3301C52.1211 15.502 51.7793 16.6901 51.4863 17.8945C51.2259 19.099 51.0957 20.3197 51.0957 21.5566C51.0957 21.9147 51.112 22.3379 51.1445 22.8262C51.1771 23.2819 51.2585 23.7376 51.3887 24.1934C51.5189 24.6165 51.7142 24.9909 51.9746 25.3164C52.2676 25.6094 52.6582 25.7559 53.1465 25.7559C53.7975 25.7559 54.5299 25.5443 55.3438 25.1211C56.1901 24.6654 57.0202 24.1445 57.834 23.5586C58.6803 22.9401 59.4779 22.3053 60.2266 21.6543C60.9753 21.0033 61.5775 20.4661 62.0332 20.043C62.3262 18.6432 62.7168 17.0807 63.2051 15.3555C63.7259 13.5977 64.3281 11.8398 65.0117 10.082C65.6953 8.32422 66.444 6.66406 67.2578 5.10156C68.0716 3.50651 68.9505 2.17188 69.8945 1.09766C70.0573 0.934896 70.2201 0.853516 70.3828 0.853516C70.5781 0.853516 70.7734 0.934896 70.9688 1.09766C71.1641 1.26042 71.2617 1.45573 71.2617 1.68359C71.2292 1.71615 71.2129 1.7487 71.2129 1.78125C70.5944 3.50651 69.8457 5.37826 68.9668 7.39648C68.1204 9.38216 67.3066 11.4167 66.5254 13.5C65.7441 15.5508 65.0768 17.6016 64.5234 19.6523C63.9701 21.7031 63.6934 23.6562 63.6934 25.5117C63.6934 25.6419 63.6934 25.7721 63.6934 25.9023C63.7259 26.0326 63.8073 26.1302 63.9375 26.1953C64.6862 26.0651 65.4674 25.6908 66.2812 25.0723C67.1276 24.4538 67.9089 23.8027 68.625 23.1191C69.3737 22.403 70.0247 21.7682 70.5781 21.2148C71.1315 20.6615 71.4896 20.3848 71.6523 20.3848C71.8477 20.3848 72.0267 20.4661 72.1895 20.6289C72.3848 20.7917 72.4824 20.9707 72.4824 21.166Z" fill="black"/>
</g>
</svg>
