<svg width="226" height="206" viewBox="0 0 226 206" fill="none" xmlns="http://www.w3.org/2000/svg">
    <style>
        @media (prefers-reduced-motion) {
        path {
        animation: none !important;
        stroke-dasharray: unset !important;
        }
        }
        @keyframes grow {
        0% {
        opacity: 0;
        }
        10% {
        opacity: 1;
        transform: translate(0, 1%);
        }
        40% {
        transform: translate(0, 0);
        }
        50%,
        to {
        stroke-dasharray: 2000px 0;
        }
        95% {
        opacity: 1;
        }
        100% {
        opacity: 0;
        }
        }
        path {
        stroke-dashoffset: 2000px;
        stroke-dasharray: 0px 2000px;
        animation: grow 15s ease forwards infinite;
        transform-origin: center;
        stroke: #303030;
        animation-delay: 0s;
        }
        @media (prefers-color-scheme:dark) {
        path {
        stroke: #fdfdfd;
        }
        }
    </style>
    <path
        d="M207.618 27.9436C208.818 31.8103 209.351 32.3436 209.351 30.2103C209.484 26.6103 207.351 21.9436 205.484 21.9436C204.818 21.9436 203.884 23.2769 203.351 24.877C202.951 26.477 199.751 30.6103 196.551 34.2103C189.618 41.5436 188.018 48.2103 190.684 58.7436C191.884 63.4103 191.884 66.077 190.684 69.5436C189.218 74.3436 190.951 81.9437 193.751 81.9437C197.218 81.9437 202.951 77.277 207.084 71.0103C215.751 57.9436 218.018 52.477 217.751 44.7436C217.751 38.6103 218.151 37.1436 220.951 35.0103C224.284 32.3436 225.218 28.6103 222.551 28.6103C221.751 28.6103 219.484 29.9436 217.751 31.5436L214.418 34.6103L215.218 28.6103C215.751 24.3436 216.951 22.077 219.351 20.2103C221.218 18.877 222.818 17.1436 222.818 16.477C222.818 14.2103 218.818 15.277 217.218 17.9436C215.218 21.1436 212.018 21.277 206.818 18.6103C200.951 15.5436 197.484 10.3436 198.284 5.94363C199.084 2.47697 197.484 -0.1897 195.618 1.54364C195.218 1.94363 194.818 3.8103 194.818 5.54364C194.818 8.6103 194.418 8.74363 190.551 7.67697C184.284 6.21031 156.151 6.34363 156.284 7.94363C156.284 8.74363 157.351 9.14364 158.684 9.01031C160.018 8.87698 162.151 9.81032 163.351 11.1436C165.484 13.4103 165.084 13.8103 157.218 17.4103C151.884 19.677 146.418 21.1436 142.551 21.1436C134.151 21.277 133.751 23.677 141.751 24.6103C149.751 25.5436 152.418 27.8103 148.684 30.6103C142.684 35.1436 136.551 37.277 128.951 37.277C123.884 37.277 120.818 37.8103 120.551 38.877C120.151 40.077 121.484 40.6103 124.684 40.6103C127.351 40.6103 129.484 41.277 129.484 41.9436C129.484 44.6103 120.551 48.7436 103.484 54.077C64.951 65.9436 50.4176 72.7437 39.0843 83.677C36.0176 86.7437 32.151 91.8103 30.6843 94.877C29.0843 98.3437 27.351 100.21 26.2843 99.8103C23.351 98.7437 16.551 106.744 13.4843 114.877C11.8843 119.01 9.75096 126.344 8.68429 131.144C7.61763 135.81 5.75096 141.41 4.68429 143.41C2.55096 147.677 2.28429 152.21 4.15096 152.877C4.95096 153.144 4.68429 155.944 3.35096 159.944C2.15096 163.944 1.21763 172.744 1.08429 182.077C0.817626 195.81 1.08429 197.944 3.35096 200.477C7.35096 204.877 6 188.5 6 188.5V187C6 186 9.56682 170.333 12.3668 165.667C14.5002 162.067 16.6846 158.077 17.0846 158.477C17.4846 158.744 16.9513 162.077 16.1513 165.677C14.4179 172.344 14.9513 176.61 17.4846 176.61C18.2846 176.61 18.8179 173.41 18.8179 169.144C18.8179 162.61 19.7513 159.944 25.4846 149.277C29.2179 142.477 32.1513 135.277 32.1513 133.144C32.1513 128.61 34.2846 127.01 46.1513 122.61C56.5513 118.61 70.9512 117.144 78.5512 119.144C81.6179 120.077 84.1512 121.144 84.1512 121.81C84.1512 123.944 76.5512 129.944 74.6846 129.277C71.8846 128.21 54.4179 137.144 48.8179 142.477C46.2846 145.01 44.1513 148.21 44.1513 149.677C44.1513 151.277 46.3184 155.277 48.2846 160.61C50.2508 165.944 52.818 169.41 47.618 184.077C43.8846 194.344 44.4179 199.944 49.3513 206.077L51.7513 209.144L53.618 205.81C54.9513 203.544 55.4846 197.41 55.4846 184.61V166.61L61.2179 155.944C64.4179 150.077 69.0846 142.344 71.7513 138.61C76.0179 132.877 76.6846 132.344 77.6179 134.61C79.6179 139.81 78.8179 143.144 74.0179 148.877C67.7512 156.21 64.1513 163.944 64.1513 170.21C64.1513 175.544 65.2179 179.277 66.8179 179.277C68.4179 179.277 74.6846 164.21 77.3512 154.077C79.2179 146.344 80.6846 143.81 85.0846 139.677C91.8846 133.277 93.0846 129.677 90.0179 125.01C88.4179 122.477 88.1513 121.277 89.3512 120.877C92.6846 119.81 104.018 109.944 104.818 107.41C105.618 104.61 109.618 103.144 122.818 100.61C137.751 97.8103 148.818 99.6769 159.085 106.744C164.951 110.877 167.218 116.344 165.351 121.81C164.151 125.144 163.218 125.677 157.485 126.344C153.885 126.744 148.551 128.344 145.618 129.944C139.751 132.877 134.951 139.944 137.351 142.344C139.085 144.077 151.085 138.344 158.285 132.077C161.351 129.544 166.551 126.744 169.885 125.944C183.885 122.344 185.885 114.21 176.285 99.8103L173.485 95.6769L183.751 96.3436C196.018 97.0103 201.751 99.1436 204.818 103.81C207.351 107.677 206.285 112.744 201.618 118.877L198.818 122.21L197.618 118.877C196.285 115.41 190.018 110.344 188.685 111.677C188.285 112.077 189.218 113.01 190.685 113.944C192.285 114.744 194.418 116.877 195.618 118.744C197.751 121.81 197.618 122.344 194.685 127.944C192.151 132.61 191.885 134.477 192.951 137.544C193.751 139.944 195.218 141.277 196.818 141.277C199.218 141.277 199.485 140.477 199.218 132.744C198.818 125.544 199.218 123.81 202.018 120.477C206.951 114.61 208.685 108.21 206.551 103.677C204.018 98.3436 197.218 95.6769 183.485 94.6103C174.685 93.8103 176.285 96.6103 173.485 94.6103"
        stroke="black" stroke-width="3.5" stroke-linecap="round" stroke-linejoin="round" />
</svg>