<svg width="62" height="22" viewBox="0 0 62 22" fill="none" xmlns="http://www.w3.org/2000/svg">
<path d="M0.361328 20.0234C0.361328 19.8607 0.361328 19.7142 0.361328 19.584C0.361328 19.4212 0.442708 19.2585 0.605469 19.0957C1.41927 18.1842 2.18424 17.3704 2.90039 16.6543C3.61654 15.9056 4.33268 15.2383 5.04883 14.6523C5.79753 14.0339 6.5625 13.4479 7.34375 12.8945C8.125 12.3086 8.97135 11.6901 9.88281 11.0391C9.94792 11.0065 10.0293 10.9251 10.127 10.7949C10.2572 10.6647 10.3385 10.5671 10.3711 10.502C10.4362 10.209 10.5176 9.81836 10.6152 9.33008C10.7129 8.80924 10.7943 8.25586 10.8594 7.66992C10.9245 7.08398 10.9896 6.49805 11.0547 5.91211C11.1198 5.29362 11.1523 4.74023 11.1523 4.25195C11.1523 4.05664 11.1361 3.84505 11.1035 3.61719C11.1035 3.35677 10.957 3.19401 10.6641 3.12891C10.6315 3.12891 10.5501 3.16146 10.4199 3.22656C10.2897 3.29167 10.1921 3.34049 10.127 3.37305L2.99805 9.08594L2.75391 9.37891L2.99805 5.76562C3.51888 5.375 4.12109 4.87044 4.80469 4.25195C5.48828 3.60091 6.20443 2.98242 6.95312 2.39648C7.73438 1.81055 8.51562 1.30599 9.29688 0.882812C10.1107 0.459635 10.8919 0.248047 11.6406 0.248047C12.194 0.248047 12.6172 0.378255 12.9102 0.638672C13.2357 0.899089 13.4635 1.24089 13.5938 1.66406C13.7565 2.05469 13.8542 2.49414 13.8867 2.98242C13.9193 3.43815 13.9355 3.8776 13.9355 4.30078C13.9355 5.04948 13.8867 5.7819 13.7891 6.49805C13.724 7.21419 13.6914 7.91406 13.6914 8.59766V8.89062C13.9518 8.76042 14.375 8.53255 14.9609 8.20703C15.5469 7.88151 16.1654 7.55599 16.8164 7.23047C17.4674 6.8724 18.0859 6.54688 18.6719 6.25391C19.2578 5.92839 19.681 5.68424 19.9414 5.52148C20.0065 5.48893 20.1204 5.40755 20.2832 5.27734C20.4785 5.14714 20.6738 5.00065 20.8691 4.83789C21.0645 4.67513 21.2435 4.52865 21.4062 4.39844C21.6016 4.23568 21.7318 4.13802 21.7969 4.10547H22.0898C22.2526 4.10547 22.4316 4.17057 22.627 4.30078C22.8223 4.39844 23.0013 4.52865 23.1641 4.69141C23.3268 4.85417 23.457 5.0332 23.5547 5.22852C23.6849 5.39128 23.75 5.57031 23.75 5.76562C23.75 5.86328 23.7337 5.99349 23.7012 6.15625C23.6686 6.28646 23.6035 6.38411 23.5059 6.44922L13.6914 11.9668C13.4961 12.0645 13.3984 12.1784 13.3984 12.3086C13.431 12.4062 13.4473 12.569 13.4473 12.7969C13.4473 13.6107 13.5775 14.278 13.8379 14.7988C14.1309 15.2871 14.4889 15.6777 14.9121 15.9707C15.3678 16.2637 15.9049 16.4753 16.5234 16.6055C17.1745 16.7031 17.8581 16.752 18.5742 16.752C19.0625 16.752 19.5996 16.7031 20.1855 16.6055C20.7715 16.4753 21.3086 16.4264 21.7969 16.459C21.9596 16.4264 22.2201 16.3613 22.5781 16.2637C22.9688 16.166 23.3757 16.0521 23.7988 15.9219C24.2546 15.7917 24.6777 15.6777 25.0684 15.5801C25.459 15.4499 25.7194 15.3522 25.8496 15.2871C26.11 15.1569 26.4193 14.9616 26.7773 14.7012C27.1354 14.4082 27.4935 14.1152 27.8516 13.8223C28.2422 13.4967 28.6165 13.2201 28.9746 12.9922C29.3652 12.7643 29.7233 12.6504 30.0488 12.6504C30.6022 12.6504 30.8789 12.9271 30.8789 13.4805C30.8789 14.099 30.6185 14.6686 30.0977 15.1895C29.6094 15.7103 28.9746 16.1986 28.1934 16.6543C27.4447 17.0775 26.5983 17.4518 25.6543 17.7773C24.7428 18.1029 23.8314 18.3958 22.9199 18.6562C22.0085 18.8841 21.1784 19.0632 20.4297 19.1934C19.7135 19.291 19.1602 19.3398 18.7695 19.3398C17.7279 19.3398 16.735 19.2585 15.791 19.0957C14.8796 18.9329 14.0495 18.64 13.3008 18.2168C12.5846 17.7936 11.9661 17.2402 11.4453 16.5566C10.957 15.8405 10.599 14.929 10.3711 13.8223C8.71094 14.7012 7.11589 15.7917 5.58594 17.0938C4.05599 18.3958 2.63997 19.6979 1.33789 21C1.30534 21.0326 1.27279 21.0488 1.24023 21.0488H1.09375C0.800781 21.0488 0.605469 20.9512 0.507812 20.7559C0.410156 20.528 0.361328 20.2839 0.361328 20.0234ZM28.9746 15.7266C29.1048 15.2708 29.1862 14.7988 29.2188 14.3105C29.2839 13.8223 29.349 13.3014 29.4141 12.748C29.5117 12.1947 29.6582 11.5762 29.8535 10.8926C30.0814 10.1764 30.4232 9.37891 30.8789 8.5C31.3346 7.62109 31.9368 6.61198 32.6855 5.47266C33.4668 4.30078 34.4759 2.96615 35.7129 1.46875C35.8431 1.27344 36.0059 1.11068 36.2012 0.980469C36.3965 0.817708 36.6081 0.736328 36.8359 0.736328C37.2266 0.736328 37.5684 0.899089 37.8613 1.22461C38.1543 1.51758 38.3008 1.8431 38.3008 2.20117C38.3008 2.23372 38.2682 2.34766 38.2031 2.54297C38.1706 2.70573 38.138 2.81966 38.1055 2.88477C37.7474 3.63346 37.4056 4.30078 37.0801 4.88672C36.7546 5.47266 36.4128 6.04232 36.0547 6.5957C35.6966 7.11654 35.2897 7.66992 34.834 8.25586C34.4108 8.8418 33.9062 9.50911 33.3203 10.2578C32.9297 11.2344 32.5879 12.1458 32.2949 12.9922C32.002 13.8385 31.8555 14.7826 31.8555 15.8242C31.8555 16.3451 31.8717 16.7682 31.9043 17.0938C31.9694 17.4193 32.1322 17.8587 32.3926 18.4121H32.9297C33.8737 18.4121 34.9479 18.0378 36.1523 17.2891C37.3893 16.5078 38.5938 15.5964 39.7656 14.5547C40.9701 13.4805 42.0605 12.39 43.0371 11.2832C44.0137 10.1764 44.7298 9.28125 45.1855 8.59766C45.2507 8.53255 45.332 8.38607 45.4297 8.1582C45.5599 7.89779 45.6413 7.73503 45.6738 7.66992C45.7389 7.47461 45.8529 7.14909 46.0156 6.69336C46.1784 6.20508 46.3411 5.70052 46.5039 5.17969C46.6992 4.65885 46.8783 4.17057 47.041 3.71484C47.2038 3.22656 47.3177 2.88477 47.3828 2.68945C47.4479 2.39648 47.5781 2.23372 47.7734 2.20117C47.9688 2.16862 48.1641 2.15234 48.3594 2.15234C48.9453 2.15234 49.3197 2.28255 49.4824 2.54297C49.6452 2.77083 49.7266 3.16146 49.7266 3.71484V4.54492C49.401 5.42383 49.1081 6.23763 48.8477 6.98633C48.6198 7.73503 48.3919 8.46745 48.1641 9.18359C47.9688 9.89974 47.8223 10.6159 47.7246 11.332C47.627 12.0482 47.5781 12.8294 47.5781 13.6758C47.5781 13.7734 47.5618 14.0013 47.5293 14.3594C47.5293 14.7174 47.5456 15.0918 47.5781 15.4824C47.6432 15.8405 47.7409 16.1823 47.8711 16.5078C48.0339 16.8008 48.2617 16.9473 48.5547 16.9473C49.3359 16.9473 50.1335 16.8496 50.9473 16.6543C51.7936 16.4264 52.64 16.1497 53.4863 15.8242C54.3327 15.4661 55.1302 15.0755 55.8789 14.6523C56.6602 14.2292 57.3926 13.806 58.0762 13.3828C58.2389 13.3177 58.4342 13.1712 58.6621 12.9434C58.89 12.7155 59.1341 12.5039 59.3945 12.3086C59.6549 12.0807 59.9154 11.8854 60.1758 11.7227C60.4362 11.5599 60.6803 11.4785 60.9082 11.4785C61.5592 11.4785 61.8848 11.804 61.8848 12.4551C61.8848 12.9434 61.5918 13.4642 61.0059 14.0176C60.4199 14.5384 59.6712 15.0592 58.7598 15.5801C57.8809 16.1009 56.888 16.5892 55.7812 17.0449C54.6745 17.5007 53.6003 17.9076 52.5586 18.2656C51.5495 18.5911 50.638 18.8678 49.8242 19.0957C49.0104 19.291 48.4245 19.3887 48.0664 19.3887C47.9362 19.3887 47.6921 19.3887 47.334 19.3887C47.0085 19.3561 46.7806 19.3398 46.6504 19.3398C46.1296 19.2096 45.7227 18.9167 45.4297 18.4609C45.1367 18.0052 44.9089 17.5007 44.7461 16.9473C44.6159 16.3613 44.5345 15.7917 44.502 15.2383C44.4694 14.6523 44.4531 14.1803 44.4531 13.8223C44.3555 13.8874 44.2253 13.9688 44.0625 14.0664C43.9323 14.1315 43.8509 14.2129 43.8184 14.3105C43.5579 14.5384 43.1185 14.8965 42.5 15.3848C41.9141 15.8405 41.263 16.3451 40.5469 16.8984C39.8633 17.4193 39.2122 17.9076 38.5938 18.3633C38.0078 18.819 37.6009 19.1445 37.373 19.3398C36.722 19.8281 36.0059 20.235 35.2246 20.5605C34.4434 20.8861 33.6458 21.0488 32.832 21.0488C31.9857 21.0488 31.3184 20.9186 30.8301 20.6582C30.3418 20.3652 29.9512 19.9909 29.6582 19.5352C29.3978 19.0469 29.2188 18.4772 29.1211 17.8262C29.0234 17.1751 28.9746 16.4753 28.9746 15.7266Z" fill="black"/>
</svg>
